<svg width="70" height="70" viewBox="0 0 70 70" fill="none" xmlns="http://www.w3.org/2000/svg">
<g clip-path="url(#clip0_329_11625)">
<rect width="70" height="70" rx="35" fill="url(#paint0_linear_329_11625)"/>
<path d="M38.5648 84.0002C64.5019 84.0002 115.55 63.797 115.55 27.1425C115.55 -9.51196 121.762 -51.7998 95.8253 -51.7998C69.8882 -51.7998 -8.39844 -19.0231 -8.39844 17.6314C-8.39844 54.2859 12.6277 84.0002 38.5648 84.0002Z" fill="url(#paint1_linear_329_11625)"/>
<path d="M12.4459 35.3504L26.2805 42.8577V46.4792L7.5631 36.266V34.3942L26.2805 24.1403V27.7617L12.4459 35.3504ZM40.8069 18.5658L32.2213 55.2682H28.8033L37.511 18.5658H40.8069ZM62.0065 34.3942V36.266L43.289 46.4792V42.8577L57.1236 35.3504L43.289 27.7617V24.1403L62.0065 34.3942Z" fill="#2D5D83"/>
</g>
<defs>
<linearGradient id="paint0_linear_329_11625" x1="35" y1="0" x2="35" y2="70" gradientUnits="userSpaceOnUse">
<stop stop-color="white"/>
<stop offset="1" stop-color="#999999"/>
</linearGradient>
<linearGradient id="paint1_linear_329_11625" x1="-8.39855" y1="-48.7373" x2="12509.2" y2="8808.84" gradientUnits="userSpaceOnUse">
<stop stop-color="#D0B870"/>
<stop offset="0.5" stop-color="#F4EB95"/>
<stop offset="1" stop-color="#D0B870"/>
</linearGradient>
<clipPath id="clip0_329_11625">
<rect width="70" height="70" rx="35" fill="white"/>
</clipPath>
</defs>
</svg>
