<svg width="70" height="70" viewBox="0 0 70 70" fill="none" xmlns="http://www.w3.org/2000/svg">
<path fill-rule="evenodd" clip-rule="evenodd" d="M34.982 70C54.2774 70 70 54.2801 70 35.0241C70 15.768 54.2774 0 34.982 0C15.6865 0 0 15.7199 0 35.012C0 54.3041 15.7226 69.988 34.982 69.988V70Z" fill="url(#paint0_linear_36_188)"/>
<path d="M20.6188 25.0292C21.2323 24.4519 22.2187 24.4519 22.8322 25.0292C23.4457 25.6426 23.4457 26.6289 22.8322 27.2423L15.0972 34.9519L22.4954 42.421C23.1089 43.0344 23.1089 44.0207 22.4954 44.6341C21.8819 45.2475 20.8954 45.2475 20.2819 44.6341C17.0821 41.3987 13.7739 38.2595 10.7305 34.8798L20.6188 25.0292Z" fill="#123E61"/>
<path d="M37.7729 21.0361C38.0496 20.2182 38.9277 19.7732 39.7458 20.0859C40.5638 20.3626 41.0089 21.2406 40.7322 22.0585L31.5897 48.6873C31.313 49.5052 30.4349 49.9141 29.6169 49.6375C28.7989 49.3609 28.3538 48.4829 28.6304 47.665L37.7729 21.0361Z" fill="#123E61"/>
<path d="M48.3469 25.0292C47.7334 24.4519 46.747 24.4519 46.1335 25.0292C45.52 25.6426 45.52 26.6289 46.1335 27.2423L53.9045 34.9519L46.4703 42.421C45.8568 43.0344 45.8568 44.0207 46.4703 44.6341C47.0838 45.2475 48.0702 45.2475 48.6837 44.6341C51.8836 41.3987 55.1917 38.2595 58.2352 34.8798L48.3469 25.0292Z" fill="#123E61"/>
<defs>
<linearGradient id="paint0_linear_36_188" x1="5.86965e-08" y1="35.6212" x2="75.3943" y2="35.6212" gradientUnits="userSpaceOnUse">
<stop stop-color="#935F25"/>
<stop offset="0.510417" stop-color="#F4ED95"/>
<stop offset="1" stop-color="#8C5D25"/>
</linearGradient>
</defs>
</svg>
