<svg width="230" height="68" viewBox="0 0 230 68" fill="none" xmlns="http://www.w3.org/2000/svg">
<g clip-path="url(#clip0_44_104)">
<g filter="url(#filter0_d_44_104)">
<path d="M217.499 38.2053H225.099L216.246 24.9379L224.776 11.3889H217.342L212.613 19.4932L207.226 11.3889H199.594L208.406 24.5832L199.793 38.2053H207.226L212.018 30.0175L217.499 38.2053Z" fill="url(#paint0_linear_44_104)"/>
<path d="M198.613 11.3889H178.401V38.2053H198.613V32.9797H184.936V27.0865H197.454V22.0695H184.936V16.6249H198.613V11.3889Z" fill="url(#paint1_linear_44_104)"/>
<path d="M169.673 11.3889V28.0044L158.753 11.3889H152.207V38.2053H158.753V21.6836L169.673 38.2053H176.208V11.3889H169.673Z" fill="url(#paint2_linear_44_104)"/>
<path d="M147.738 11.3889H141.203V38.2053H147.738V11.3889Z" fill="url(#paint3_linear_44_104)"/>
<path d="M136.411 15.7383C134.072 12.7865 130.23 11.0968 125.459 11.0968C117.118 11.0968 111.25 16.7396 111.25 24.7814C111.25 32.8232 117.139 38.4139 125.48 38.4139C136.401 38.4139 138.948 29.6315 138.948 23.1021H124.154V27.921H132.767C131.734 30.9353 129.395 32.6564 126.023 32.6564C121.137 32.6564 118.183 29.7567 118.183 24.7919C118.183 15.1855 129.573 15.0603 132.36 19.8792L136.411 15.7383Z" fill="url(#paint4_linear_44_104)"/>
<path d="M85.4426 11.3889H73.875V38.2053H85.4426C93.993 38.2053 99.4949 32.7607 99.4949 24.8127C99.4949 16.8648 93.993 11.3889 85.4426 11.3889ZM80.4105 32.5625V16.9795H85.025C89.9422 16.9795 92.8341 19.8792 92.8341 24.8127C92.8341 29.7463 89.9318 32.5625 85.025 32.5625H80.4105Z" fill="url(#paint5_linear_44_104)"/>
<path d="M107.93 11.3889H101.395V38.2053H107.93V11.3889Z" fill="url(#paint6_linear_44_104)"/>
<path d="M74.248 43.235H75.4966L78.0459 50.946L81.7006 43.235H81.8827L85.4204 50.946L87.9957 43.235H89.2833L85.6676 53.923H85.4855L81.7657 45.8338L77.9678 53.923H77.7858L74.248 43.235ZM92.9381 43.235H99.1291V44.2721H94.1867V47.6273H98.1276V48.6644H94.1867V52.886H99.09V53.923H92.9381V43.235ZM103.889 43.235H107.102C108.103 43.235 108.871 43.3448 109.391 43.5156C109.911 43.723 110.353 44.0402 110.64 44.4551C110.926 44.8699 111.121 45.3579 111.121 45.8338C111.121 46.3096 110.978 46.7733 110.718 47.1515C110.419 47.5297 110.054 47.847 109.495 48.1154C110.158 48.2862 110.679 48.4936 111.004 48.7742C111.342 49.0183 111.628 49.3233 111.81 49.7137C111.992 50.0553 112.109 50.4458 112.109 50.885C112.109 51.7147 111.745 52.4711 111.004 53.069C110.262 53.6546 109.313 53.9353 108.051 53.9353H103.889V43.235ZM105.112 44.2721V47.7005H106.582C107.427 47.7005 108.09 47.6273 108.494 47.4931C108.897 47.3589 109.235 47.1515 109.456 46.8343C109.716 46.5536 109.82 46.212 109.82 45.8338C109.82 45.3457 109.599 44.9675 109.235 44.6869C108.832 44.4063 108.168 44.2721 107.323 44.2721H105.112ZM105.112 52.886H107.401C108.325 52.886 108.988 52.8128 109.43 52.6785C109.833 52.5077 110.21 52.2637 110.458 51.9465C110.718 51.6049 110.822 51.251 110.822 50.8728C110.822 50.3848 110.64 49.9699 110.262 49.6283C109.924 49.2867 109.417 49.0427 108.793 48.8962C108.351 48.823 107.609 48.762 106.582 48.762H105.112V52.886Z" fill="url(#paint7_linear_44_104)"/>
<path d="M122.319 51.9587L123.386 51.4096C124.127 52.5809 124.973 53.1788 125.961 53.1788C126.364 53.1788 126.767 53.1056 127.145 52.9348C127.509 52.764 127.769 52.5199 127.99 52.2393C128.172 51.9587 128.25 51.6903 128.25 51.3364C128.25 50.9826 128.133 50.641 127.847 50.2994C127.444 49.8113 126.741 49.2623 125.714 48.5668C124.647 47.908 124.023 47.4199 123.763 47.1149C123.321 46.5903 123.1 46.0778 123.1 45.4922C123.1 45.0041 123.243 44.5893 123.503 44.2111C123.763 43.8328 124.127 43.5156 124.608 43.3082C125.051 43.0642 125.571 42.9666 126.117 42.9666C126.702 42.9666 127.262 43.1008 127.782 43.3448C128.302 43.5888 128.848 44.0402 129.408 44.7235L128.406 45.3823C127.925 44.8333 127.522 44.4795 127.184 44.3087C126.845 44.1378 126.481 44.0646 126.117 44.0646C125.597 44.0646 125.194 44.1989 124.868 44.4429C124.53 44.7235 124.387 45.0285 124.387 45.4068C124.387 45.6508 124.426 45.8948 124.569 46.1022C124.686 46.3096 124.868 46.5536 125.155 46.8343C125.337 46.9441 125.857 47.3223 126.78 47.8714C127.886 48.5668 128.627 49.1891 129.03 49.7015C129.434 50.2505 129.616 50.7752 129.616 51.3242C129.616 52.0807 129.278 52.7762 128.588 53.3252C127.886 53.9109 127.08 54.1915 126.078 54.1915C125.337 54.1915 124.634 54.0207 124.01 53.6668C123.386 53.3252 122.826 52.7274 122.319 51.9343V51.9587Z" fill="url(#paint8_linear_44_104)"/>
<path d="M139.24 42.9666C140.931 42.9666 142.375 43.5156 143.52 44.5893C144.664 45.6996 145.249 47.0051 145.249 48.6034C145.249 50.2018 144.664 51.5073 143.52 52.5809C142.375 53.6912 140.97 54.2403 139.318 54.2403C137.667 54.2403 136.262 53.6912 135.117 52.5809C133.973 51.5073 133.388 50.1895 133.388 48.64C133.388 47.6395 133.648 46.6635 134.194 45.8094C134.714 44.9065 135.417 44.2233 136.327 43.7352C137.211 43.2472 138.174 42.9788 139.24 42.9788V42.9666ZM139.279 44.0402C138.473 44.0402 137.654 44.2477 136.925 44.6625C136.184 45.0407 135.599 45.602 135.195 46.3218C134.753 47.0173 134.571 47.7737 134.571 48.64C134.571 49.9211 135.013 50.9948 135.937 51.8611C136.899 52.764 138.005 53.1788 139.292 53.1788C140.177 53.1788 140.983 53.008 141.725 52.5931C142.466 52.1783 143.051 51.6293 143.454 50.9338C143.858 50.2383 144.079 49.4819 144.079 48.6156C144.079 47.7493 143.858 46.9929 143.454 46.2974C143.051 45.602 142.453 45.0529 141.725 44.6747C140.944 44.2599 140.138 44.0524 139.292 44.0524L139.279 44.0402Z" fill="url(#paint9_linear_44_104)"/>
<path d="M149.164 43.235H150.374V52.886H155.212V53.923H149.164V43.235Z" fill="url(#paint10_linear_44_104)"/>
<path d="M159.777 43.235H161.026V49.7015C161.026 50.458 161.026 50.946 161.065 51.1168C161.143 51.5683 161.286 51.9099 161.507 52.1905C161.728 52.4711 162.066 52.7151 162.535 52.9226C163.016 53.0934 163.497 53.2032 163.978 53.2032C164.382 53.2032 164.759 53.13 165.162 52.9592C165.526 52.825 165.864 52.6175 166.085 52.3369C166.346 52.0929 166.528 51.7513 166.671 51.373C166.749 51.0924 166.788 50.5434 166.788 49.7137V43.2472H168.036V49.7137C168.036 50.6532 167.919 51.4462 167.698 52.0319C167.477 52.6175 167.035 53.1422 166.411 53.557C165.747 54.0085 164.967 54.2159 164.017 54.2159C163.068 54.2159 162.171 54.0085 161.442 53.5936C160.74 53.1788 160.259 52.6541 159.998 51.9709C159.855 51.5561 159.777 50.7996 159.777 49.7259V43.235Z" fill="url(#paint11_linear_44_104)"/>
<path d="M172.237 44.2721V43.235H179.066V44.2721H176.295V53.923H175.008V44.2721H172.237Z" fill="url(#paint12_linear_44_104)"/>
<path d="M184.918 43.235H183.67V53.923H184.918V43.235Z" fill="url(#paint13_linear_44_104)"/>
<path d="M194.621 42.9666C196.312 42.9666 197.756 43.5156 198.9 44.5893C200.045 45.663 200.591 47.0051 200.591 48.5668C200.591 50.1285 200.032 51.4706 198.9 52.5809C197.756 53.6546 196.351 54.2037 194.738 54.2037C193.125 54.2037 191.682 53.6546 190.537 52.5809C189.393 51.5073 188.807 50.1895 188.807 48.64C188.807 47.6029 189.067 46.6635 189.588 45.7728C190.108 44.9065 190.836 44.2111 191.721 43.7352C192.605 43.2106 193.607 42.9788 194.634 42.9788L194.621 42.9666ZM194.66 44.0036C193.854 44.0036 193.073 44.2111 192.332 44.6259C191.552 45.0407 191.005 45.5898 190.563 46.2852C190.16 47.0173 189.939 47.7737 189.939 48.64C189.939 49.9211 190.42 50.9948 191.344 51.8611C192.267 52.7274 193.373 53.1788 194.66 53.1788C195.545 53.1788 196.351 52.9714 197.092 52.5931C197.834 52.1783 198.419 51.6293 198.822 50.9338C199.225 50.2383 199.447 49.4453 199.447 48.579C199.447 47.7127 199.225 46.9929 198.822 46.2974C198.419 45.602 197.821 45.0529 197.053 44.6381C196.312 44.2233 195.506 44.0158 194.66 44.0158V44.0036Z" fill="url(#paint14_linear_44_104)"/>
<path d="M204.688 53.923V43.235H204.935L213.233 51.434V43.235H214.495V53.923H214.196L205.976 45.8338V53.923H204.688Z" fill="url(#paint15_linear_44_104)"/>
<path d="M218.176 51.9587L219.203 51.4096C219.983 52.5809 220.829 53.1788 221.817 53.1788C222.221 53.1788 222.624 53.1056 223.001 52.9348C223.365 52.764 223.625 52.5199 223.807 52.2393C224.028 51.9587 224.106 51.6903 224.106 51.3364C224.106 50.9826 223.963 50.641 223.703 50.2994C223.3 49.8113 222.598 49.2623 221.57 48.5668C220.504 47.908 219.879 47.4199 219.619 47.1149C219.177 46.5903 218.956 46.0778 218.956 45.4922C218.956 45.0041 219.073 44.5893 219.359 44.2111C219.619 43.8328 219.983 43.5156 220.426 43.3082C220.907 43.0642 221.427 42.9666 221.973 42.9666C222.559 42.9666 223.118 43.1008 223.638 43.3448C224.158 43.5888 224.705 44.0402 225.264 44.7235L224.262 45.3823C223.781 44.8333 223.378 44.4795 223.04 44.3087C222.702 44.1378 222.338 44.0646 221.973 44.0646C221.453 44.0646 221.05 44.1989 220.725 44.4429C220.387 44.7235 220.244 45.0285 220.244 45.4068C220.244 45.6508 220.283 45.8948 220.387 46.1022C220.504 46.3096 220.725 46.5536 221.011 46.8343C221.193 46.9441 221.713 47.3223 222.637 47.8714C223.742 48.5668 224.484 49.1891 224.887 49.7015C225.29 50.2505 225.472 50.7752 225.472 51.3242C225.472 52.0807 225.134 52.7762 224.445 53.3252C223.742 53.9109 222.936 54.1915 221.934 54.1915C221.154 54.1915 220.491 54.0207 219.866 53.6668C219.242 53.313 218.683 52.7274 218.176 51.9343V51.9587Z" fill="url(#paint16_linear_44_104)"/>
<path fill-rule="evenodd" clip-rule="evenodd" d="M35.2308 62.0452C51.9766 62.0452 65.6218 48.4128 65.6218 31.7138C65.6218 15.0148 51.9766 1.34058 35.2308 1.34058C18.4849 1.34058 4.87109 14.9731 4.87109 31.7033C4.87109 48.4336 18.5163 62.0348 35.2308 62.0348V62.0452Z" fill="url(#paint17_linear_44_104)"/>
<path d="M22.7653 23.0462C23.2978 22.5456 24.1538 22.5456 24.6863 23.0462C25.2187 23.5782 25.2187 24.4335 24.6863 24.9654L17.9733 31.6513L24.394 38.1285C24.9264 38.6605 24.9264 39.5158 24.394 40.0477C23.8615 40.5797 23.0054 40.5797 22.473 40.0477C19.6959 37.242 16.8249 34.5196 14.1836 31.5887L22.7653 23.0462Z" fill="#123E61"/>
<path d="M37.6528 19.5834C37.893 18.8741 38.6551 18.4882 39.365 18.7594C40.0749 18.9993 40.4612 19.7607 40.2211 20.4699L32.2867 43.5628C32.0465 44.272 31.2844 44.6267 30.5745 44.3868C29.8646 44.1469 29.4783 43.3854 29.7184 42.6762L37.6528 19.5834Z" fill="#123E61"/>
<path d="M46.8297 23.0462C46.2972 22.5456 45.4411 22.5456 44.9087 23.0462C44.3762 23.5782 44.3762 24.4335 44.9087 24.9654L51.653 31.6513L45.201 38.1285C44.6686 38.6605 44.6686 39.5158 45.201 40.0477C45.7334 40.5797 46.5895 40.5797 47.122 40.0477C49.899 37.242 52.77 34.5196 55.4114 31.5887L46.8297 23.0462Z" fill="#123E61"/>
</g>
</g>
<defs>
<filter id="filter0_d_44_104" x="1.87109" y="1.34058" width="226.602" height="66.7047" filterUnits="userSpaceOnUse" color-interpolation-filters="sRGB">
<feFlood flood-opacity="0" result="BackgroundImageFix"/>
<feColorMatrix in="SourceAlpha" type="matrix" values="0 0 0 0 0 0 0 0 0 0 0 0 0 0 0 0 0 0 127 0" result="hardAlpha"/>
<feOffset dy="3"/>
<feGaussianBlur stdDeviation="1.5"/>
<feComposite in2="hardAlpha" operator="out"/>
<feColorMatrix type="matrix" values="0 0 0 0 0 0 0 0 0 0 0 0 0 0 0 0 0 0 0.25 0"/>
<feBlend mode="normal" in2="BackgroundImageFix" result="effect1_dropShadow_44_104"/>
<feBlend mode="normal" in="SourceGraphic" in2="effect1_dropShadow_44_104" result="shape"/>
</filter>
<linearGradient id="paint0_linear_44_104" x1="73.875" y1="24.9978" x2="236.753" y2="24.9978" gradientUnits="userSpaceOnUse">
<stop stop-color="#935F25"/>
<stop offset="0.510417" stop-color="#F4ED95"/>
<stop offset="1" stop-color="#8C5D25"/>
</linearGradient>
<linearGradient id="paint1_linear_44_104" x1="73.875" y1="24.9978" x2="236.753" y2="24.9978" gradientUnits="userSpaceOnUse">
<stop stop-color="#935F25"/>
<stop offset="0.510417" stop-color="#F4ED95"/>
<stop offset="1" stop-color="#8C5D25"/>
</linearGradient>
<linearGradient id="paint2_linear_44_104" x1="73.875" y1="24.9978" x2="236.753" y2="24.9978" gradientUnits="userSpaceOnUse">
<stop stop-color="#935F25"/>
<stop offset="0.510417" stop-color="#F4ED95"/>
<stop offset="1" stop-color="#8C5D25"/>
</linearGradient>
<linearGradient id="paint3_linear_44_104" x1="73.875" y1="24.9978" x2="236.753" y2="24.9978" gradientUnits="userSpaceOnUse">
<stop stop-color="#935F25"/>
<stop offset="0.510417" stop-color="#F4ED95"/>
<stop offset="1" stop-color="#8C5D25"/>
</linearGradient>
<linearGradient id="paint4_linear_44_104" x1="73.875" y1="24.9978" x2="236.753" y2="24.9978" gradientUnits="userSpaceOnUse">
<stop stop-color="#935F25"/>
<stop offset="0.510417" stop-color="#F4ED95"/>
<stop offset="1" stop-color="#8C5D25"/>
</linearGradient>
<linearGradient id="paint5_linear_44_104" x1="73.875" y1="24.9978" x2="236.753" y2="24.9978" gradientUnits="userSpaceOnUse">
<stop stop-color="#935F25"/>
<stop offset="0.510417" stop-color="#F4ED95"/>
<stop offset="1" stop-color="#8C5D25"/>
</linearGradient>
<linearGradient id="paint6_linear_44_104" x1="73.875" y1="24.9978" x2="236.753" y2="24.9978" gradientUnits="userSpaceOnUse">
<stop stop-color="#935F25"/>
<stop offset="0.510417" stop-color="#F4ED95"/>
<stop offset="1" stop-color="#8C5D25"/>
</linearGradient>
<linearGradient id="paint7_linear_44_104" x1="74.248" y1="48.7035" x2="237.126" y2="48.7035" gradientUnits="userSpaceOnUse">
<stop stop-color="#935F25"/>
<stop offset="0.510417" stop-color="#F4ED95"/>
<stop offset="1" stop-color="#8C5D25"/>
</linearGradient>
<linearGradient id="paint8_linear_44_104" x1="74.248" y1="48.7035" x2="237.126" y2="48.7035" gradientUnits="userSpaceOnUse">
<stop stop-color="#935F25"/>
<stop offset="0.510417" stop-color="#F4ED95"/>
<stop offset="1" stop-color="#8C5D25"/>
</linearGradient>
<linearGradient id="paint9_linear_44_104" x1="74.248" y1="48.7035" x2="237.126" y2="48.7035" gradientUnits="userSpaceOnUse">
<stop stop-color="#935F25"/>
<stop offset="0.510417" stop-color="#F4ED95"/>
<stop offset="1" stop-color="#8C5D25"/>
</linearGradient>
<linearGradient id="paint10_linear_44_104" x1="74.248" y1="48.7035" x2="237.126" y2="48.7035" gradientUnits="userSpaceOnUse">
<stop stop-color="#935F25"/>
<stop offset="0.510417" stop-color="#F4ED95"/>
<stop offset="1" stop-color="#8C5D25"/>
</linearGradient>
<linearGradient id="paint11_linear_44_104" x1="74.248" y1="48.7035" x2="237.126" y2="48.7035" gradientUnits="userSpaceOnUse">
<stop stop-color="#935F25"/>
<stop offset="0.510417" stop-color="#F4ED95"/>
<stop offset="1" stop-color="#8C5D25"/>
</linearGradient>
<linearGradient id="paint12_linear_44_104" x1="74.248" y1="48.7035" x2="237.126" y2="48.7035" gradientUnits="userSpaceOnUse">
<stop stop-color="#935F25"/>
<stop offset="0.510417" stop-color="#F4ED95"/>
<stop offset="1" stop-color="#8C5D25"/>
</linearGradient>
<linearGradient id="paint13_linear_44_104" x1="74.248" y1="48.7035" x2="237.126" y2="48.7035" gradientUnits="userSpaceOnUse">
<stop stop-color="#935F25"/>
<stop offset="0.510417" stop-color="#F4ED95"/>
<stop offset="1" stop-color="#8C5D25"/>
</linearGradient>
<linearGradient id="paint14_linear_44_104" x1="74.248" y1="48.7035" x2="237.126" y2="48.7035" gradientUnits="userSpaceOnUse">
<stop stop-color="#935F25"/>
<stop offset="0.510417" stop-color="#F4ED95"/>
<stop offset="1" stop-color="#8C5D25"/>
</linearGradient>
<linearGradient id="paint15_linear_44_104" x1="74.248" y1="48.7035" x2="237.126" y2="48.7035" gradientUnits="userSpaceOnUse">
<stop stop-color="#935F25"/>
<stop offset="0.510417" stop-color="#F4ED95"/>
<stop offset="1" stop-color="#8C5D25"/>
</linearGradient>
<linearGradient id="paint16_linear_44_104" x1="74.248" y1="48.7035" x2="237.126" y2="48.7035" gradientUnits="userSpaceOnUse">
<stop stop-color="#935F25"/>
<stop offset="0.510417" stop-color="#F4ED95"/>
<stop offset="1" stop-color="#8C5D25"/>
</linearGradient>
<linearGradient id="paint17_linear_44_104" x1="4.87109" y1="32.2316" x2="70.3033" y2="32.2316" gradientUnits="userSpaceOnUse">
<stop stop-color="#935F25"/>
<stop offset="0.510417" stop-color="#F4ED95"/>
<stop offset="1" stop-color="#8C5D25"/>
</linearGradient>
<clipPath id="clip0_44_104">
<rect width="230" height="67.0079" fill="white"/>
</clipPath>
</defs>
</svg>
